<svg width="60" height="60" viewBox="0 0 60 60" fill="none" xmlns="http://www.w3.org/2000/svg">
<path opacity="0.21" d="M37 0C49.7025 0 60 10.2975 60 23V37C60 49.7025 49.7025 60 37 60H23C10.2975 60 0 49.7025 0 37V23C0 10.2975 10.2975 0 23 0H37Z" fill="#8280FF"/>
<path opacity="0.587821" d="M37.9997 24.667C40.2088 24.667 41.9997 26.4579 41.9997 28.667C41.9995 30.876 40.2087 32.667 37.9997 32.667C35.7908 32.6668 33.9998 30.8759 33.9997 28.667C33.9997 26.458 35.7907 24.6672 37.9997 24.667ZM25.9997 18C28.9451 18 31.3335 20.3876 31.3336 23.333C31.3336 26.2785 28.9452 28.667 25.9997 28.667C23.0543 28.6668 20.6667 26.2784 20.6667 23.333C20.6668 20.3877 23.0544 18.0002 25.9997 18Z" fill="#8280FF"/>
<path d="M25.9775 31.3333C32.3612 31.3333 37.6062 34.3908 37.9971 40.9329C38.0126 41.1936 37.9967 42.0003 36.9951 42.0003H14.9697C14.6353 41.9999 13.9728 41.2785 14.001 40.932C14.5179 34.5687 19.6825 31.3334 25.9775 31.3333ZM37.4688 34.0023C42.0104 34.0521 45.7188 36.3469 45.998 41.1995C46.0093 41.395 45.9978 42.0003 45.2744 42.0003H40.1338C40.1338 38.9996 39.1417 36.2304 37.4688 34.0023Z" fill="#8280FF"/>
</svg>
