<svg width="60" height="60" viewBox="0 0 60 60" fill="none" xmlns="http://www.w3.org/2000/svg">
<path opacity="0.3" d="M37 0C49.7025 0 60 10.2975 60 23V37C60 49.7025 49.7025 60 37 60H23C10.2975 60 0 49.7025 0 37V23C0 10.2975 10.2975 0 23 0H37Z" fill="#FF9066"/>
<path opacity="0.78" fill-rule="evenodd" clip-rule="evenodd" d="M28.6312 23.8088C28.6512 23.5483 28.8684 23.3472 29.1297 23.3472H29.5475C29.8044 23.3472 30.0195 23.5418 30.045 23.7974L30.6667 30.0138L35.0814 32.5366C35.2372 32.6256 35.3333 32.7912 35.3333 32.9707V33.3592C35.3333 33.6889 35.0199 33.9284 34.7018 33.8416L28.3987 32.1226C28.1673 32.0595 28.0133 31.841 28.0317 31.6018L28.6312 23.8088Z" fill="#FF9066"/>
<path opacity="0.901274" d="M21.8525 15.1903C21.9479 14.7907 22.4575 14.6696 22.7217 14.9842L24.5205 17.1287C26.2036 16.4121 28.0552 16.0135 30 16.0135C37.7319 16.0135 43.9998 22.2817 44 30.0135C44 37.7455 37.732 44.0135 30 44.0135C22.268 44.0135 16 37.7455 16 30.0135C16 28.7005 16.1805 27.4295 16.5186 26.2244L19.0859 26.9451C18.8086 27.934 18.667 28.963 18.667 30.0135C18.667 36.2727 23.7408 41.3475 30 41.3475C36.2592 41.3475 41.333 36.2727 41.333 30.0135C41.3328 23.7544 36.2591 18.6805 30 18.6805C28.7318 18.6805 27.4968 18.8889 26.332 19.2869L28.1328 21.4334C28.3974 21.7487 28.1892 22.2304 27.7783 22.2537L20.7334 22.6532C20.3992 22.672 20.1411 22.3635 20.2188 22.0379L21.8525 15.1903Z" fill="#FF9066"/>
</svg>
